<svg viewBox="0 0 400 300" xmlns="http://www.w3.org/2000/svg" role="img" aria-label="3D printed Ohio topographic relief map">
  <defs>
    <linearGradient id="oh-bg" x1="0" y1="0" x2="1" y2="1">
      <stop offset="0" stop-color="#DFFBF4"></stop><stop offset="1" stop-color="#3FC9B6"></stop>
    </linearGradient>
    <clipPath id="oh-clip"><path d="M120 70 L252 70 L262 150 Q236 202 196 238 Q176 210 150 196 Q132 186 118 182 Z"></path></clipPath>
  </defs>
  <rect width="400" height="300" fill="url(#oh-bg)"></rect>
  <g fill="none" stroke="#FFFFFF" stroke-opacity="0.18" stroke-width="2">
    <path d="M0 56 Q100 38 200 56 T400 56"></path>
    <path d="M0 250 Q100 232 200 250 T400 250"></path>
    <path d="M0 280 Q100 262 200 280 T400 280"></path>
  </g>
  <ellipse cx="190" cy="158" rx="124" ry="104" fill="#FFFFFF" opacity="0.22"></ellipse>
  <path d="M120 70 L252 70 L262 150 Q236 202 196 238 Q176 210 150 196 Q132 186 118 182 Z" fill="#FFF7EC" stroke="#221C3A" stroke-width="4" stroke-linejoin="round"></path>
  <g clip-path="url(#oh-clip)" fill="none" stroke="#2BB39E" stroke-width="3">
    <path d="M108 96 Q182 80 272 102"></path>
    <path d="M108 122 Q182 106 272 130"></path>
    <path d="M120 152 Q186 140 252 164"></path>
    <path d="M132 182 Q182 172 232 192"></path>
  </g>
  <g clip-path="url(#oh-clip)" fill="none" stroke="#FF6A3D" stroke-width="3">
    <circle cx="192" cy="142" r="14"></circle><circle cx="192" cy="142" r="27"></circle>
  </g>
  <circle cx="192" cy="142" r="5" fill="#FF3D77"></circle>
  <g stroke="#FFF7EC" stroke-width="2.4" stroke-linecap="round"><path d="M300 54 h10 M305 49 v10"></path></g>
  <circle cx="305" cy="54" r="3" fill="#FFF7EC"></circle>
</svg>